<?xml version="1.0" standalone="no"?>
<!DOCTYPE svg PUBLIC "-//W3C//DTD SVG 20010904//EN"
 "http://www.w3.org/TR/2001/REC-SVG-20010904/DTD/svg10.dtd">
<svg version="1.0" xmlns="http://www.w3.org/2000/svg"
 width="1080.000000pt" height="1080.000000pt" viewBox="0 0 1080.000000 1080.000000"
 preserveAspectRatio="xMidYMid meet">
<metadata>
Created by potrace 1.14, written by Peter Selinger 2001-2017
</metadata>
<g transform="translate(0.000000,1080.000000) scale(0.100000,-0.100000)"
fill="#000000" stroke="none">
<path d="M6099 7513 c10 -27 272 -678 581 -1448 309 -770 654 -1631 767 -1912
l205 -513 195 0 c108 0 193 4 191 9 -1 5 -354 887 -782 1960 l-780 1951 -198
0 -198 0 19 -47z"/>
<path d="M7740 7255 l0 -305 -155 0 -156 0 3 -152 3 -153 153 -3 152 -3 0
-637 c0 -710 1 -719 67 -852 48 -98 169 -221 263 -267 109 -54 162 -63 382
-63 l198 0 0 150 0 150 -32 0 c-75 0 -198 84 -241 164 -22 41 -22 45 -25 699
l-3 657 151 0 150 0 0 155 0 155 -150 0 -150 0 0 305 0 305 -305 0 -305 0 0
-305z"/>
<path d="M2388 6370 c-232 -39 -452 -209 -564 -435 -80 -162 -79 -148 -79
-925 0 -764 -1 -754 70 -906 82 -178 246 -337 421 -408 134 -54 175 -57 735
-54 458 4 521 6 579 22 299 83 475 306 535 679 l12 77 -192 0 -193 0 -7 -52
c-23 -185 -101 -284 -253 -323 -51 -13 -111 -16 -344 -13 -283 3 -283 3 -340
30 -105 49 -191 149 -222 259 -13 45 -16 98 -14 275 l3 219 783 3 783 2 -3
453 c-4 423 -6 457 -25 529 -63 225 -244 431 -459 521 -126 53 -172 57 -696
56 -266 -1 -504 -5 -530 -9z m695 -412 c114 -53 204 -167 227 -287 5 -29 10
-145 10 -257 l0 -204 -396 0 -396 0 4 243 3 242 31 65 c35 72 108 151 168 182
81 41 109 48 201 45 72 -2 101 -8 148 -29z"/>
<path d="M4765 6365 c-241 -44 -414 -185 -511 -415 -34 -81 -69 -212 -80 -297
l-7 -53 197 0 196 0 0 43 c0 59 25 150 54 194 35 56 74 88 141 120 l60 28 315
0 315 0 58 -29 c33 -15 83 -52 112 -81 29 -29 66 -79 81 -112 l29 -58 3 -247
3 -248 -780 0 -781 0 0 -448 c0 -417 1 -454 20 -528 68 -268 283 -490 545
-566 79 -23 86 -23 610 -23 528 0 530 0 605 23 265 84 467 288 542 549 23 78
23 80 23 793 0 713 0 715 -23 793 -81 281 -317 503 -600 562 -92 20 -1022 20
-1127 0z m963 -1797 l-3 -253 -29 -60 c-111 -226 -393 -294 -594 -144 -29 22
-68 64 -88 93 -59 89 -64 121 -64 383 l0 233 391 0 390 0 -3 -252z"/>
</g>
</svg>
